<svg xmlns="http://www.w3.org/2000/svg" xmlns:xlink="http://www.w3.org/1999/xlink" viewBox="0 0 500 500" width="500" height="500" preserveAspectRatio="xMidYMid meet" style="width: 100%; height: 100%; transform: translate3d(0px, 0px, 0px); content-visibility: visible;"><defs><clipPath id="__lottie_element_28"><rect width="500" height="500" x="0" y="0"></rect></clipPath></defs><g clip-path="url(#__lottie_element_28)"><g transform="matrix(1.154520034790039,0,0,1.154520034790039,51.54414367675781,52.53314208984375)" opacity="1" style="display: block;"><g opacity="1" transform="matrix(1,0,0,1,168.50799560546875,168.50799560546875)"><path fill="rgb(61,83,255)" fill-opacity="1" d=" M168.25799560546875,0 C168.25799560546875,92.9260025024414 92.9260025024414,168.25799560546875 -0.0010000000474974513,168.25799560546875 C-92.9280014038086,168.25799560546875 -168.25799560546875,92.9260025024414 -168.25799560546875,0 C-168.25799560546875,-92.927001953125 -92.9280014038086,-168.25799560546875 -0.0010000000474974513,-168.25799560546875 C92.9260025024414,-168.25799560546875 168.25799560546875,-92.927001953125 168.25799560546875,0z"></path></g></g><g transform="matrix(1,0,0,1,133.80734252929688,112.27799987792969)" opacity="1" style="display: block;"><g opacity="1" transform="matrix(1,0,0,1,115.10199737548828,134.23899841308594)"><path fill="rgb(254,254,254)" fill-opacity="1" d=" M78.77899932861328,133.98899841308594 C78.77899932861328,133.98899841308594 -78.77899932861328,133.98899841308594 -78.77899932861328,133.98899841308594 C-85.82599639892578,133.98899841308594 -91.53900146484375,128.27499389648438 -91.53900146484375,121.22699737548828 C-91.53900146484375,121.22699737548828 -91.53900146484375,-121.22799682617188 -91.53900146484375,-121.22799682617188 C-91.53900146484375,-128.2760009765625 -85.82599639892578,-133.98899841308594 -78.77899932861328,-133.98899841308594 C-78.77899932861328,-133.98899841308594 78.77899932861328,-133.98899841308594 78.77899932861328,-133.98899841308594 C85.8270034790039,-133.98899841308594 91.53900146484375,-128.2760009765625 91.53900146484375,-121.22799682617188 C91.53900146484375,-121.22799682617188 91.53900146484375,121.22699737548828 91.53900146484375,121.22699737548828 C91.53900146484375,128.27499389648438 85.8270034790039,133.98899841308594 78.77899932861328,133.98899841308594z"></path></g></g><g transform="matrix(1,0,0,1,182.07540893554688,137.68299865722656)" opacity="1" style="display: block;"><g opacity="1" transform="matrix(1,0,0,1,64.5770034790039,207.15499877929688)"><path fill="rgb(215,215,215)" fill-opacity="1" d=" M60.994998931884766,6.593999862670898 C60.994998931884766,6.593999862670898 -60.994998931884766,6.593999862670898 -60.994998931884766,6.593999862670898 C-62.652000427246094,6.593999862670898 -63.994998931884766,5.250999927520752 -63.994998931884766,3.5940001010894775 C-63.994998931884766,3.5940001010894775 -63.994998931884766,-3.5940001010894775 -63.994998931884766,-3.5940001010894775 C-63.994998931884766,-5.250999927520752 -62.652000427246094,-6.593999862670898 -60.994998931884766,-6.593999862670898 C-60.994998931884766,-6.593999862670898 60.994998931884766,-6.593999862670898 60.994998931884766,-6.593999862670898 C62.652000427246094,-6.593999862670898 63.994998931884766,-5.250999927520752 63.994998931884766,-3.5940001010894775 C63.994998931884766,-3.5940001010894775 63.994998931884766,3.5940001010894775 63.994998931884766,3.5940001010894775 C63.994998931884766,5.250999927520752 62.652000427246094,6.593999862670898 60.994998931884766,6.593999862670898z"></path></g><g opacity="1" transform="matrix(1,0,0,1,64.91100311279297,175.15499877929688)"><path fill="rgb(215,215,215)" fill-opacity="1" d=" M61.6609992980957,6.593999862670898 C61.6609992980957,6.593999862670898 -61.6609992980957,6.593999862670898 -61.6609992980957,6.593999862670898 C-63.31800079345703,6.593999862670898 -64.66100311279297,5.250999927520752 -64.66100311279297,3.5940001010894775 C-64.66100311279297,3.5940001010894775 -64.66100311279297,-3.5940001010894775 -64.66100311279297,-3.5940001010894775 C-64.66100311279297,-5.250999927520752 -63.31800079345703,-6.593999862670898 -61.6609992980957,-6.593999862670898 C-61.6609992980957,-6.593999862670898 61.6609992980957,-6.593999862670898 61.6609992980957,-6.593999862670898 C63.31800079345703,-6.593999862670898 64.66100311279297,-5.250999927520752 64.66100311279297,-3.5940001010894775 C64.66100311279297,-3.5940001010894775 64.66100311279297,3.5940001010894775 64.66100311279297,3.5940001010894775 C64.66100311279297,5.250999927520752 63.31800079345703,6.593999862670898 61.6609992980957,6.593999862670898z"></path></g><g opacity="1" transform="matrix(1,0,0,1,64.5770034790039,80.15499877929688)"><path fill="rgb(215,215,215)" fill-opacity="1" d=" M60.994998931884766,6.593999862670898 C60.994998931884766,6.593999862670898 -60.994998931884766,6.593999862670898 -60.994998931884766,6.593999862670898 C-62.652000427246094,6.593999862670898 -63.994998931884766,5.250999927520752 -63.994998931884766,3.5940001010894775 C-63.994998931884766,3.5940001010894775 -63.994998931884766,-3.5940001010894775 -63.994998931884766,-3.5940001010894775 C-63.994998931884766,-5.250999927520752 -62.652000427246094,-6.593999862670898 -60.994998931884766,-6.593999862670898 C-60.994998931884766,-6.593999862670898 60.994998931884766,-6.593999862670898 60.994998931884766,-6.593999862670898 C62.652000427246094,-6.593999862670898 63.994998931884766,-5.250999927520752 63.994998931884766,-3.5940001010894775 C63.994998931884766,-3.5940001010894775 63.994998931884766,3.5940001010894775 63.994998931884766,3.5940001010894775 C63.994998931884766,5.250999927520752 62.652000427246094,6.593999862670898 60.994998931884766,6.593999862670898z"></path></g><g opacity="1" transform="matrix(1,0,0,1,97.91100311279297,17.48900032043457)"><path fill="rgb(215,215,215)" fill-opacity="1" d=" M27.660999298095703,6.593999862670898 C27.660999298095703,6.593999862670898 -27.660999298095703,6.593999862670898 -27.660999298095703,6.593999862670898 C-29.31800079345703,6.593999862670898 -30.660999298095703,5.250999927520752 -30.660999298095703,3.5940001010894775 C-30.660999298095703,3.5940001010894775 -30.660999298095703,-3.5940001010894775 -30.660999298095703,-3.5940001010894775 C-30.660999298095703,-5.250999927520752 -29.31800079345703,-6.593999862670898 -27.660999298095703,-6.593999862670898 C-27.660999298095703,-6.593999862670898 27.660999298095703,-6.593999862670898 27.660999298095703,-6.593999862670898 C29.31800079345703,-6.593999862670898 30.660999298095703,-5.250999927520752 30.660999298095703,-3.5940001010894775 C30.660999298095703,-3.5940001010894775 30.660999298095703,3.5940001010894775 30.660999298095703,3.5940001010894775 C30.660999298095703,5.250999927520752 29.31800079345703,6.593999862670898 27.660999298095703,6.593999862670898z"></path></g><g opacity="1" transform="matrix(1,0,0,1,98.24400329589844,42.821998596191406)"><path fill="rgb(215,215,215)" fill-opacity="1" d=" M28.32699966430664,6.593999862670898 C28.32699966430664,6.593999862670898 -28.32699966430664,6.593999862670898 -28.32699966430664,6.593999862670898 C-29.985000610351562,6.593999862670898 -31.32699966430664,5.250999927520752 -31.32699966430664,3.5940001010894775 C-31.32699966430664,3.5940001010894775 -31.32699966430664,-3.5940001010894775 -31.32699966430664,-3.5940001010894775 C-31.32699966430664,-5.250999927520752 -29.985000610351562,-6.593999862670898 -28.32699966430664,-6.593999862670898 C-28.32699966430664,-6.593999862670898 28.32699966430664,-6.593999862670898 28.32699966430664,-6.593999862670898 C29.983999252319336,-6.593999862670898 31.32699966430664,-5.250999927520752 31.32699966430664,-3.5940001010894775 C31.32699966430664,-3.5940001010894775 31.32699966430664,3.5940001010894775 31.32699966430664,3.5940001010894775 C31.32699966430664,5.250999927520752 29.983999252319336,6.593999862670898 28.32699966430664,6.593999862670898z"></path></g><g opacity="1" transform="matrix(1,0,0,1,64.74400329589844,111.48799896240234)"><path fill="rgb(215,215,215)" fill-opacity="1" d=" M60.82699966430664,6.593999862670898 C60.82699966430664,6.593999862670898 -60.82699966430664,6.593999862670898 -60.82699966430664,6.593999862670898 C-62.48500061035156,6.593999862670898 -63.82699966430664,5.250999927520752 -63.82699966430664,3.5940001010894775 C-63.82699966430664,3.5940001010894775 -63.82699966430664,-3.5940001010894775 -63.82699966430664,-3.5940001010894775 C-63.82699966430664,-5.250999927520752 -62.48500061035156,-6.593999862670898 -60.82699966430664,-6.593999862670898 C-60.82699966430664,-6.593999862670898 60.82699966430664,-6.593999862670898 60.82699966430664,-6.593999862670898 C62.48400115966797,-6.593999862670898 63.82699966430664,-5.250999927520752 63.82699966430664,-3.5940001010894775 C63.82699966430664,-3.5940001010894775 63.82699966430664,3.5940001010894775 63.82699966430664,3.5940001010894775 C63.82699966430664,5.250999927520752 62.48400115966797,6.593999862670898 60.82699966430664,6.593999862670898z"></path></g><g opacity="1" transform="matrix(1,0,0,1,64.91100311279297,142.82200622558594)"><path fill="rgb(215,215,215)" fill-opacity="1" d=" M61.6609992980957,6.593999862670898 C61.6609992980957,6.593999862670898 -61.6609992980957,6.593999862670898 -61.6609992980957,6.593999862670898 C-63.31800079345703,6.593999862670898 -64.66100311279297,5.25 -64.66100311279297,3.5940001010894775 C-64.66100311279297,3.5940001010894775 -64.66100311279297,-3.5940001010894775 -64.66100311279297,-3.5940001010894775 C-64.66100311279297,-5.251999855041504 -63.31800079345703,-6.593999862670898 -61.6609992980957,-6.593999862670898 C-61.6609992980957,-6.593999862670898 61.6609992980957,-6.593999862670898 61.6609992980957,-6.593999862670898 C63.31800079345703,-6.593999862670898 64.66100311279297,-5.251999855041504 64.66100311279297,-3.5940001010894775 C64.66100311279297,-3.5940001010894775 64.66100311279297,3.5940001010894775 64.66100311279297,3.5940001010894775 C64.66100311279297,5.25 63.31800079345703,6.593999862670898 61.6609992980957,6.593999862670898z"></path></g><g opacity="1" transform="matrix(1,0,0,1,27.993000030517578,27.784000396728516)"><path fill="rgb(215,215,215)" fill-opacity="1" d=" M20.93899917602539,27.533000946044922 C20.93899917602539,27.533000946044922 -20.93899917602539,27.533000946044922 -20.93899917602539,27.533000946044922 C-24.58099937438965,27.533000946044922 -27.534000396728516,24.58099937438965 -27.534000396728516,20.93899917602539 C-27.534000396728516,20.93899917602539 -27.534000396728516,-20.93899917602539 -27.534000396728516,-20.93899917602539 C-27.534000396728516,-24.58099937438965 -24.58099937438965,-27.533000946044922 -20.93899917602539,-27.533000946044922 C-20.93899917602539,-27.533000946044922 20.93899917602539,-27.533000946044922 20.93899917602539,-27.533000946044922 C24.58099937438965,-27.533000946044922 27.534000396728516,-24.58099937438965 27.534000396728516,-20.93899917602539 C27.534000396728516,-20.93899917602539 27.534000396728516,20.93899917602539 27.534000396728516,20.93899917602539 C27.534000396728516,24.58099937438965 24.58099937438965,27.533000946044922 20.93899917602539,27.533000946044922z"></path></g></g><g transform="matrix(1,0,0,0.9305800199508667,-62.615535736083984,153.00344848632812)" opacity="1" style="display: block;"><g opacity="1" transform="matrix(1,0,0,1,64.3030014038086,101.08699798583984)"><path fill="rgb(234,234,234)" fill-opacity="1" d=" M51.292999267578125,100.83699798583984 C51.292999267578125,100.83699798583984 -51.29199981689453,100.83699798583984 -51.29199981689453,100.83699798583984 C-58.34000015258789,100.83699798583984 -64.0530014038086,95.12300109863281 -64.0530014038086,88.07499694824219 C-64.0530014038086,88.07499694824219 -64.0530014038086,-88.07599639892578 -64.0530014038086,-88.07599639892578 C-64.0530014038086,-95.1240005493164 -58.34000015258789,-100.83699798583984 -51.29199981689453,-100.83699798583984 C-51.29199981689453,-100.83699798583984 51.292999267578125,-100.83699798583984 51.292999267578125,-100.83699798583984 C58.340999603271484,-100.83699798583984 64.05400085449219,-95.1240005493164 64.05400085449219,-88.07599639892578 C64.05400085449219,-88.07599639892578 64.05400085449219,88.07499694824219 64.05400085449219,88.07499694824219 C64.05400085449219,95.12300109863281 58.340999603271484,100.83699798583984 51.292999267578125,100.83699798583984z"></path></g></g><g transform="matrix(1,0,0,0.8809999823570251,371.47198486328125,157.9593505859375)" opacity="1" style="display: none;"><g opacity="1" transform="matrix(1,0,0,1,64.30400085449219,101.08699798583984)"><path fill="rgb(234,234,234)" fill-opacity="1" d=" M51.29199981689453,100.83699798583984 C51.29199981689453,100.83699798583984 -51.292999267578125,100.83699798583984 -51.292999267578125,100.83699798583984 C-58.340999603271484,100.83699798583984 -64.05400085449219,95.1240005493164 -64.05400085449219,88.07599639892578 C-64.05400085449219,88.07599639892578 -64.05400085449219,-88.07599639892578 -64.05400085449219,-88.07599639892578 C-64.05400085449219,-95.12300109863281 -58.340999603271484,-100.83699798583984 -51.292999267578125,-100.83699798583984 C-51.292999267578125,-100.83699798583984 51.29199981689453,-100.83699798583984 51.29199981689453,-100.83699798583984 C58.34000015258789,-100.83699798583984 64.05400085449219,-95.12300109863281 64.05400085449219,-88.07599639892578 C64.05400085449219,-88.07599639892578 64.05400085449219,88.07599639892578 64.05400085449219,88.07599639892578 C64.05400085449219,95.1240005493164 58.34000015258789,100.83699798583984 51.29199981689453,100.83699798583984z"></path></g></g><g transform="matrix(1,0,0,0.940500020980835,371.47198486328125,151.92767333984375)" opacity="1" style="display: block;"><g opacity="1" transform="matrix(1.0174700021743774,0,0,0.9663400053977966,64.30400085449219,101.08699798583984)"><path fill="rgb(234,234,234)" fill-opacity="1" d=" M51.29199981689453,100.83699798583984 C51.29199981689453,100.83699798583984 -51.292999267578125,100.83699798583984 -51.292999267578125,100.83699798583984 C-58.340999603271484,100.83699798583984 -64.05400085449219,95.1240005493164 -64.05400085449219,88.07599639892578 C-64.05400085449219,88.07599639892578 -64.05400085449219,-88.07599639892578 -64.05400085449219,-88.07599639892578 C-64.05400085449219,-95.1240005493164 -58.340999603271484,-100.83699798583984 -51.292999267578125,-100.83699798583984 C-51.292999267578125,-100.83699798583984 51.29199981689453,-100.83699798583984 51.29199981689453,-100.83699798583984 C58.34000015258789,-100.83699798583984 64.05400085449219,-95.1240005493164 64.05400085449219,-88.07599639892578 C64.05400085449219,-88.07599639892578 64.05400085449219,88.07599639892578 64.05400085449219,88.07599639892578 C64.05400085449219,95.1240005493164 58.34000015258789,100.83699798583984 51.29199981689453,100.83699798583984z"></path></g></g><g transform="matrix(1.29558265209198,0,0,1.2955853939056396,186.9713592529297,140.86180114746094)" opacity="1" style="display: none;"><g opacity="1" transform="matrix(1,0,0,1,48.65999984741211,155.95799255371094)"><path fill="rgb(215,215,215)" fill-opacity="1" d=" M45.159000396728516,4.9629998207092285 C45.159000396728516,4.9629998207092285 -45.159000396728516,4.9629998207092285 -45.159000396728516,4.9629998207092285 C-46.81700134277344,4.9629998207092285 -48.159000396728516,3.61899995803833 -48.159000396728516,1.9630000591278076 C-48.159000396728516,1.9630000591278076 -48.159000396728516,-1.9630000591278076 -48.159000396728516,-1.9630000591278076 C-48.159000396728516,-3.619999885559082 -46.81700134277344,-4.9629998207092285 -45.159000396728516,-4.9629998207092285 C-45.159000396728516,-4.9629998207092285 45.159000396728516,-4.9629998207092285 45.159000396728516,-4.9629998207092285 C46.816001892089844,-4.9629998207092285 48.159000396728516,-3.619999885559082 48.159000396728516,-1.9630000591278076 C48.159000396728516,-1.9630000591278076 48.159000396728516,1.9630000591278076 48.159000396728516,1.9630000591278076 C48.159000396728516,3.61899995803833 46.816001892089844,4.9629998207092285 45.159000396728516,4.9629998207092285z"></path></g></g><g transform="matrix(1.29558265209198,0,0,1.2955853939056396,186.9708709716797,140.86166381835938)" opacity="1" style="display: none;"><g opacity="1" transform="matrix(1,0,0,1,48.9109992980957,131.87600708007812)"><path fill="rgb(215,215,215)" fill-opacity="1" d=" M45.6609992980957,4.9629998207092285 C45.6609992980957,4.9629998207092285 -45.6609992980957,4.9629998207092285 -45.6609992980957,4.9629998207092285 C-47.31800079345703,4.9629998207092285 -48.6609992980957,3.619999885559082 -48.6609992980957,1.9630000591278076 C-48.6609992980957,1.9630000591278076 -48.6609992980957,-1.9630000591278076 -48.6609992980957,-1.9630000591278076 C-48.6609992980957,-3.61899995803833 -47.31800079345703,-4.9629998207092285 -45.6609992980957,-4.9629998207092285 C-45.6609992980957,-4.9629998207092285 45.6609992980957,-4.9629998207092285 45.6609992980957,-4.9629998207092285 C47.31800079345703,-4.9629998207092285 48.6609992980957,-3.61899995803833 48.6609992980957,-1.9630000591278076 C48.6609992980957,-1.9630000591278076 48.6609992980957,1.9630000591278076 48.6609992980957,1.9630000591278076 C48.6609992980957,3.619999885559082 47.31800079345703,4.9629998207092285 45.6609992980957,4.9629998207092285z"></path></g></g><g transform="matrix(1.29558265209198,0,0,1.2955853939056396,186.9708709716797,140.8624267578125)" opacity="1" style="display: none;"><g opacity="1" transform="matrix(1,0,0,1,48.9109992980957,107.54299926757812)"><path fill="rgb(215,215,215)" fill-opacity="1" d=" M45.6609992980957,4.961999893188477 C45.6609992980957,4.961999893188477 -45.6609992980957,4.961999893188477 -45.6609992980957,4.961999893188477 C-47.31800079345703,4.961999893188477 -48.6609992980957,3.61899995803833 -48.6609992980957,1.9620000123977661 C-48.6609992980957,1.9620000123977661 -48.6609992980957,-1.9620000123977661 -48.6609992980957,-1.9620000123977661 C-48.6609992980957,-3.61899995803833 -47.31800079345703,-4.961999893188477 -45.6609992980957,-4.961999893188477 C-45.6609992980957,-4.961999893188477 45.6609992980957,-4.961999893188477 45.6609992980957,-4.961999893188477 C47.31800079345703,-4.961999893188477 48.6609992980957,-3.61899995803833 48.6609992980957,-1.9620000123977661 C48.6609992980957,-1.9620000123977661 48.6609992980957,1.9620000123977661 48.6609992980957,1.9620000123977661 C48.6609992980957,3.61899995803833 47.31800079345703,4.961999893188477 45.6609992980957,4.961999893188477z"></path></g></g><g transform="matrix(1.29558265209198,0,0,1.2955853939056396,186.97047424316406,140.86190795898438)" opacity="1" style="display: none;"><g opacity="1" transform="matrix(1,0,0,1,48.7859992980957,83.96299743652344)"><path fill="rgb(215,215,215)" fill-opacity="1" d=" M45.034000396728516,4.961999893188477 C45.034000396728516,4.961999893188477 -45.034000396728516,4.961999893188477 -45.034000396728516,4.961999893188477 C-46.69200134277344,4.961999893188477 -48.034000396728516,3.61899995803833 -48.034000396728516,1.9620000123977661 C-48.034000396728516,1.9620000123977661 -48.034000396728516,-1.9620000123977661 -48.034000396728516,-1.9620000123977661 C-48.034000396728516,-3.61899995803833 -46.69200134277344,-4.961999893188477 -45.034000396728516,-4.961999893188477 C-45.034000396728516,-4.961999893188477 45.034000396728516,-4.961999893188477 45.034000396728516,-4.961999893188477 C46.691001892089844,-4.961999893188477 48.034000396728516,-3.61899995803833 48.034000396728516,-1.9620000123977661 C48.034000396728516,-1.9620000123977661 48.034000396728516,1.9620000123977661 48.034000396728516,1.9620000123977661 C48.034000396728516,3.61899995803833 46.691001892089844,4.961999893188477 45.034000396728516,4.961999893188477z"></path></g></g><g transform="matrix(1.29558265209198,0,0,1.2955853939056396,186.9713592529297,140.86273193359375)" opacity="1" style="display: none;"><g opacity="1" transform="matrix(1,0,0,1,48.65999984741211,60.382999420166016)"><path fill="rgb(215,215,215)" fill-opacity="1" d=" M45.159000396728516,4.9629998207092285 C45.159000396728516,4.9629998207092285 -45.159000396728516,4.9629998207092285 -45.159000396728516,4.9629998207092285 C-46.81700134277344,4.9629998207092285 -48.159000396728516,3.619999885559082 -48.159000396728516,1.9630000591278076 C-48.159000396728516,1.9630000591278076 -48.159000396728516,-1.9630000591278076 -48.159000396728516,-1.9630000591278076 C-48.159000396728516,-3.619999885559082 -46.81700134277344,-4.9629998207092285 -45.159000396728516,-4.9629998207092285 C-45.159000396728516,-4.9629998207092285 45.159000396728516,-4.9629998207092285 45.159000396728516,-4.9629998207092285 C46.816001892089844,-4.9629998207092285 48.159000396728516,-3.619999885559082 48.159000396728516,-1.9630000591278076 C48.159000396728516,-1.9630000591278076 48.159000396728516,1.9630000591278076 48.159000396728516,1.9630000591278076 C48.159000396728516,3.619999885559082 46.816001892089844,4.9629998207092285 45.159000396728516,4.9629998207092285z"></path></g></g><g transform="matrix(1.29558265209198,0,0,1.2955853939056396,187.75326538085938,140.86195373535156)" opacity="1" style="display: none;"><g opacity="1" transform="matrix(1,0,0,1,73.99600219726562,32.28799819946289)"><path fill="rgb(215,215,215)" fill-opacity="1" d=" M20.576000213623047,4.961999893188477 C20.576000213623047,4.961999893188477 -20.576000213623047,4.961999893188477 -20.576000213623047,4.961999893188477 C-22.233999252319336,4.961999893188477 -23.576000213623047,3.61899995803833 -23.576000213623047,1.9620000123977661 C-23.576000213623047,1.9620000123977661 -23.576000213623047,-1.9620000123977661 -23.576000213623047,-1.9620000123977661 C-23.576000213623047,-3.619999885559082 -22.233999252319336,-4.961999893188477 -20.576000213623047,-4.961999893188477 C-20.576000213623047,-4.961999893188477 20.576000213623047,-4.961999893188477 20.576000213623047,-4.961999893188477 C22.232999801635742,-4.961999893188477 23.576000213623047,-3.619999885559082 23.576000213623047,-1.9620000123977661 C23.576000213623047,-1.9620000123977661 23.576000213623047,1.9620000123977661 23.576000213623047,1.9620000123977661 C23.576000213623047,3.61899995803833 22.232999801635742,4.961999893188477 20.576000213623047,4.961999893188477z"></path></g></g><g transform="matrix(1.29558265209198,0,0,1.2955853939056396,186.9699249267578,140.86305236816406)" opacity="1" style="display: none;"><g opacity="1" transform="matrix(1,0,0,1,73.74600219726562,13.222999572753906)"><path fill="rgb(215,215,215)" fill-opacity="1" d=" M20.073999404907227,4.9629998207092285 C20.073999404907227,4.9629998207092285 -20.073999404907227,4.9629998207092285 -20.073999404907227,4.9629998207092285 C-21.73200035095215,4.9629998207092285 -23.073999404907227,3.619999885559082 -23.073999404907227,1.9630000591278076 C-23.073999404907227,1.9630000591278076 -23.073999404907227,-1.9630000591278076 -23.073999404907227,-1.9630000591278076 C-23.073999404907227,-3.619999885559082 -21.73200035095215,-4.9629998207092285 -20.073999404907227,-4.9629998207092285 C-20.073999404907227,-4.9629998207092285 20.073999404907227,-4.9629998207092285 20.073999404907227,-4.9629998207092285 C21.731000900268555,-4.9629998207092285 23.073999404907227,-3.619999885559082 23.073999404907227,-1.9630000591278076 C23.073999404907227,-1.9630000591278076 23.073999404907227,1.9630000591278076 23.073999404907227,1.9630000591278076 C23.073999404907227,3.619999885559082 21.731000900268555,4.9629998207092285 20.073999404907227,4.9629998207092285z"></path></g></g><g transform="matrix(1.2959966659545898,0,0,1.2959994077682495,186.96096801757812,140.85292053222656)" opacity="1" style="display: none;"><g opacity="1" transform="matrix(1,0,0,1,21.128999710083008,20.97100067138672)"><path fill="rgb(215,215,215)" fill-opacity="1" d=" M14.12600040435791,20.719999313354492 C14.12600040435791,20.719999313354492 -14.12600040435791,20.719999313354492 -14.12600040435791,20.719999313354492 C-17.768999099731445,20.719999313354492 -20.72100067138672,17.76799964904785 -20.72100067138672,14.12600040435791 C-20.72100067138672,14.12600040435791 -20.72100067138672,-14.12600040435791 -20.72100067138672,-14.12600040435791 C-20.72100067138672,-17.76799964904785 -17.768999099731445,-20.719999313354492 -14.12600040435791,-20.719999313354492 C-14.12600040435791,-20.719999313354492 14.12600040435791,-20.719999313354492 14.12600040435791,-20.719999313354492 C17.76799964904785,-20.719999313354492 20.72100067138672,-17.76799964904785 20.72100067138672,-14.12600040435791 C20.72100067138672,-14.12600040435791 20.72100067138672,14.12600040435791 20.72100067138672,14.12600040435791 C20.72100067138672,17.76799964904785 17.76799964904785,20.719999313354492 14.12600040435791,20.719999313354492z"></path></g></g><g transform="matrix(1,0,0,1,678.9989624023438,563.2149658203125)" opacity="1" style="display: block;"><g opacity="1" transform="matrix(1,0,0,1,38.207000732421875,23.719999313354492)"><path fill="rgb(197,197,197)" fill-opacity="1" d=" M46.35200119018555,42.07600021362305 C46.35200119018555,42.07600021362305 -23.804000854492188,-22.350000381469727 -23.804000854492188,-22.350000381469727 C-25.024999618530273,-23.469999313354492 -26.922000885009766,-23.388999938964844 -28.04400062561035,-22.16900062561035 C-28.04400062561035,-22.16900062561035 -36.83599853515625,-12.593999862670898 -36.83599853515625,-12.593999862670898 C-37.957000732421875,-11.373000144958496 -37.87699890136719,-9.47599983215332 -36.65599822998047,-8.354999542236328 C-36.65599822998047,-8.354999542236328 33.500999450683594,56.06999969482422 33.500999450683594,56.06999969482422 C34.72100067138672,57.191001892089844 36.619998931884766,57.11000061035156 37.7400016784668,55.888999938964844 C37.7400016784668,55.888999938964844 46.53300094604492,46.31399917602539 46.53300094604492,46.31399917602539 C47.65399932861328,45.095001220703125 47.573001861572266,43.19599914550781 46.35200119018555,42.07600021362305z"></path></g></g><g transform="matrix(1,0,0,1,561.6639404296875,445.90496826171875)" opacity="1" style="display: block;"><g opacity="1" transform="matrix(1,0,0,1,86,86)"><path stroke-linecap="butt" stroke-linejoin="miter" fill-opacity="0" stroke-miterlimit="10" stroke="rgb(197,197,197)" stroke-opacity="1" stroke-width="13" d=" M53.5,0 C53.5,29.547000885009766 29.547000885009766,53.5 0,53.5 C-29.547000885009766,53.5 -53.5,29.547000885009766 -53.5,0 C-53.5,-29.547000885009766 -29.547000885009766,-53.5 0,-53.5 C29.547000885009766,-53.5 53.5,-29.547000885009766 53.5,0z"></path></g></g><g transform="matrix(1,0,0,1,250,250)" opacity="1" style="display: none;"><g opacity="1" transform="matrix(1,0,0,1,0,0)"><path stroke-linecap="butt" stroke-linejoin="miter" fill-opacity="0" stroke-miterlimit="4" stroke="rgb(0,218,185)" stroke-opacity="1" stroke-width="15" d=" M-52.5,11.5 C-52.5,11.5 -11,50.5 -11,50.5 C-11,50.5 60.5,-34.5 60.5,-34.5"></path></g></g><g transform="matrix(1,0,0,1,247.46839904785156,250)" opacity="0.9942284374177582" style="display: block;"><g opacity="1" transform="matrix(1,0,0,1,0,0)"><path stroke-linecap="butt" stroke-linejoin="miter" fill-opacity="0" stroke-miterlimit="4" stroke="rgb(0,218,185)" stroke-opacity="1" stroke-width="15" d=" M-52.5,11.5 C-52.5,11.5 -11,50.5 -11,50.5 C-11,50.5 60.5,-34.5 60.5,-34.5"></path></g></g></g></svg>